<svg xmlns="http://www.w3.org/2000/svg" width="99" height="80" viewBox="0 0 495 400">
<path fill="#0058A2" d="M4.93,313.95c0-1.83,0-3.03-2.23-3.17c-0.94-0.09-1.61-0.13-1.61-0.76c0-0.62,0.58-0.62,0.89-0.62
	c0.09,0,0.13,0.04,1.25,0.09c1.16,0.04,3.34,0.09,7.76,0.09h0.54c4.64,0,6.96-0.04,8.12-0.09c1.2-0.04,1.25-0.09,1.29-0.09
	c0.71,0,0.76,0.22,0.76,0.8v4.73c0,0.13,0,0.85-0.49,0.85s-0.8-0.67-0.89-0.89c-1.07-2.45-1.78-3.92-8.34-3.92
	c-1.52,0-2.27,0.09-2.27,2.19v5.93c0,2.41,0.13,2.45,0.71,2.54c0.67,0.09,2.05,0.09,2.72,0.09c3.61,0,4.1-1.03,4.82-3.3
	c0.09-0.36,0.27-0.71,0.71-0.71c0.45,0,0.54,0.31,0.54,0.76c0,0.62-0.13,3.66-0.13,4.33c0,0.4,0,1.16,0.09,2.18l0.18,2.1
	c0,0.31,0,0.85-0.54,0.85c-0.45,0-0.67-0.4-0.71-0.71c-0.09-0.22-0.4-1.47-0.49-1.7c-0.62-2.41-3.48-2.41-4.59-2.41
	c-3.3,0-3.3,0-3.3,2.1v7.58c0,1.74,0,3.08,2.05,3.21c1.29,0.04,1.92,0.09,1.92,0.76c0,0.63-0.58,0.63-0.94,0.63
	c-1.52,0-3.88-0.18-5.4-0.18c-1.47,0-3.84,0.18-5.31,0.18c-0.36,0-0.94,0-0.94-0.67c0-0.63,0.67-0.67,1.61-0.71
	c2.23-0.18,2.23-1.34,2.23-3.17V313.95z M27.76,313.95c0-1.83,0-3.03-2.23-3.17c-0.98-0.04-1.61-0.09-1.61-0.76
	c0-0.62,0.58-0.62,0.89-0.62c0.09,0,0.13,0.04,1.12,0.09c0.98,0.04,2.9,0.09,6.69,0.09h2.14c4.59,0,6.87-0.04,8.07-0.09
	c1.16-0.04,1.2-0.09,1.34-0.09c0.54,0,0.54,0.36,0.54,1.38v4.1c0,0.22,0,0.76-0.45,0.76c-0.49,0-0.58-0.18-1.38-1.83
	c-0.54-1.16-1.61-2.85-7.94-2.85c-2.23,0-2.41,0.31-2.41,2.54v6.47c0,1.43,0,1.78,2.59,1.78c4.95,0,5.35-0.98,6.15-3.34
	c0.22-0.58,0.45-0.67,0.67-0.67c0.27,0,0.49,0.13,0.49,0.62c0,0.63-0.31,5.22-0.31,6.2c0,0.31,0.13,1.87,0.13,2.23
	c0,0.27,0,0.89-0.54,0.89c-0.36,0-0.62-0.22-0.85-1.07c-0.94-3.43-2.19-3.48-5.84-3.48c-2.14,0-2.5,0-2.5,1.34v7.67
	c0,3.17,0.94,3.66,4.68,3.66c1.96,0,4.73,0,6.69-3.79c0.8-1.56,0.89-1.74,1.29-1.74c0.4,0,0.54,0.4,0.54,0.67
	c0,0.58-0.49,3.43-0.62,5.08c-0.05,0.85-0.49,1.34-1.78,1.34c-2.27,0-5.4-0.04-7.98-0.09c-2.54-0.04-4.64-0.09-4.91-0.09H29.9
	c-1.83,0-2.94,0.04-3.66,0.09c-0.71,0.04-1.07,0.09-1.38,0.09c-0.36,0-0.94,0-0.94-0.67c0-0.63,0.67-0.67,1.61-0.76
	c2.23-0.13,2.23-1.34,2.23-3.17V313.95z M55.72,314.13c0-2.5,0.27-3.57,2.94-3.57c9.45,0,12.44,7.98,12.44,13.07
	c0,7.14-5.26,12.62-11.19,12.62c-3.43,0-4.19-1.56-4.19-4.42V314.13z M50.95,332.81c0,1.83,0,3.03-2.27,3.17
	c-0.89,0.04-1.56,0.09-1.56,0.76c0,0.63,0.58,0.63,0.89,0.63c0.22,0,4.46-0.18,5.26-0.18c1.11,0,6.87,0.18,8.16,0.18
	c11.64,0,14.94-9.23,14.94-14c0-4.33-2.27-8.61-5.93-11.11c-2.85-1.96-6.07-2.85-11.82-2.85c-4.15,0-11.6,0.62-11.6,1.87
	c0,0.36,0.22,0.49,0.62,0.49c0.31,0,1.61-0.36,1.87-0.36c0.89,0,1.43,0.62,1.43,2.45V332.81z M83.02,313.95c0-1.83,0-3.03-2.23-3.17
	c-0.98-0.04-1.61-0.09-1.61-0.76c0-0.62,0.58-0.62,0.89-0.62c0.09,0,0.13,0.04,1.11,0.09c0.98,0.04,2.9,0.09,6.69,0.09h2.14
	c4.59,0,6.87-0.04,8.07-0.09c1.16-0.04,1.2-0.09,1.34-0.09c0.54,0,0.54,0.36,0.54,1.38v4.1c0,0.22,0,0.76-0.45,0.76
	c-0.49,0-0.58-0.18-1.38-1.83c-0.54-1.16-1.61-2.85-7.94-2.85c-2.23,0-2.41,0.31-2.41,2.54v6.47c0,1.43,0,1.78,2.59,1.78
	c4.95,0,5.35-0.98,6.15-3.34c0.22-0.58,0.45-0.67,0.67-0.67c0.27,0,0.49,0.13,0.49,0.62c0,0.63-0.31,5.22-0.31,6.2
	c0,0.31,0.13,1.87,0.13,2.23c0,0.27,0,0.89-0.54,0.89c-0.36,0-0.62-0.22-0.85-1.07c-0.94-3.43-2.19-3.48-5.84-3.48
	c-2.14,0-2.5,0-2.5,1.34v7.67c0,3.17,0.94,3.66,4.68,3.66c1.96,0,4.73,0,6.69-3.79c0.8-1.56,0.89-1.74,1.29-1.74
	c0.4,0,0.54,0.4,0.54,0.67c0,0.58-0.49,3.43-0.62,5.08c-0.04,0.85-0.49,1.34-1.78,1.34c-2.27,0-5.4-0.04-7.98-0.09
	c-2.54-0.04-4.64-0.09-4.91-0.09h-0.54c-1.83,0-2.94,0.04-3.66,0.09c-0.71,0.04-1.07,0.09-1.38,0.09c-0.36,0-0.94,0-0.94-0.67
	c0-0.63,0.67-0.67,1.61-0.76c2.23-0.13,2.23-1.34,2.23-3.17V313.95z M110.89,313.46c0-1.74,0.04-2.81,2.1-2.81
	c5.53,0,6.15,4.77,6.15,6.38c0,5.58-4.42,5.58-6.02,5.58c-2.23,0-2.23-0.09-2.23-1.65V313.46z M106.12,332.81
	c0,1.87,0,3.03-2.19,3.21c-0.94,0.04-1.61,0.09-1.61,0.71c0,0.67,0.58,0.63,0.94,0.63c0.8,0,4.42-0.18,5.17-0.18
	c0.18,0,4.5,0.18,5.35,0.18c0.36,0,0.94,0.04,0.94-0.58c0-0.67-0.62-0.71-1.61-0.76c-2.23-0.13-2.23-1.34-2.23-3.21v-8.03
	c0-0.76,0.09-1.03,0.85-1.03c2.01,0,2.23,0.18,3.21,2.1l5.4,10.17c0.49,0.94,0.67,1.34,1.47,1.34c0.4,0,2.05-0.18,2.41-0.18
	c0.67,0,3.57,0.18,4.15,0.18c0.31,0,0.76-0.04,0.76-0.54c0-0.58-0.36-0.63-1.83-0.8c-1.25-0.18-1.87-1.29-2.77-2.85l-4.33-7.67
	c-1.03-1.87-1.56-2.14-2.14-2.5c1.52-0.31,6.11-1.38,6.11-6.6c0-1.56-0.67-7-8.56-7c-1.34,0-7.27,0.18-8.47,0.18
	c-0.54,0-2.72-0.18-3.17-0.18c-1.47,0-1.65,0-1.65,0.62c0,0.62,0.62,0.67,1.61,0.71c2.19,0.13,2.19,1.34,2.19,3.17V332.81z
	 M138.14,325.36c-0.8,0-1.07,0-1.07-0.45c0-0.31,0.13-0.76,0.18-0.85l2.77-7.54l3.12,7.67c0.13,0.27,0.27,0.62,0.27,0.85
	c0,0.13,0,0.31-1.03,0.31H138.14z M143.05,326.97c1.2,0,1.34,0,1.83,1.34l1.92,5.35c0.09,0.18,0.31,0.85,0.31,1.29
	c0,0.67-0.4,0.89-1.56,0.98c-0.89,0.09-1.61,0.22-1.61,0.8c0,0.63,0.58,0.63,1.03,0.63c0.13,0,2.45-0.18,5.17-0.18
	c0.76,0,4.46,0.18,5.22,0.18c0.27,0,1.03,0,1.03-0.58s-0.49-0.67-1.25-0.76c-1.83-0.27-2.27-1.25-3.7-4.68l-6.96-16.95
	c-0.36-0.85-0.85-2.1-1.29-3.35c-0.67-1.83-0.8-2.14-1.29-2.14c-0.45,0-0.45,0.04-2.1,4.37c-2.94,7.72-6.87,18.15-8.3,20.92
	c-0.85,1.56-1.25,1.61-2.72,1.74c-0.71,0.09-1.34,0.18-1.34,0.76c0,0.67,0.58,0.67,0.85,0.67c0.58,0,3.21-0.18,3.7-0.18
	c1.29,0,3.92,0.18,4.37,0.18c1.03,0,1.56,0,1.56-0.63c0-0.54-0.54-0.67-1.69-0.71c-1.03-0.04-2.14-0.13-2.14-1.25
	c0-0.54,0.4-1.74,0.4-1.87l1.52-4.77c0.36-1.16,0.36-1.16,1.69-1.16H143.05z M168.96,332.77c0,1.83,0,3.03,2.23,3.17
	c0.94,0.04,1.56,0.09,1.56,0.76c0,0.67-0.58,0.67-0.94,0.67c-1.47,0-3.79-0.18-5.26-0.18c-0.76,0-4.37,0.18-5.22,0.18
	c-0.36,0-0.94,0-0.94-0.67c0-0.63,0.62-0.67,1.56-0.76c2.23-0.13,2.23-1.34,2.23-3.08v-20.74c0-1.16-0.36-1.16-1.25-1.16
	c-2.68,0-5.62,0-7.89,4.24c-0.4,0.71-0.62,0.89-1.03,0.89c-0.36,0-0.58-0.31-0.58-0.58c0-0.22,0.09-0.49,0.13-0.71l1.83-6.29
	c0.13-0.54,0.27-0.8,0.67-0.8c0.36,0,0.49,0.22,0.54,0.63c0.22,1.2,1.03,1.25,2.01,1.25h14.32c4.59,0,4.82-0.58,5.13-1.38
	c0.13-0.36,0.27-0.63,0.62-0.63c0.62,0,0.62,0.71,0.62,1.78l-0.31,5.44c-0.04,0.89-0.13,1.43-0.71,1.43c-0.22,0-0.54-0.04-0.71-0.98
	c-0.76-4.28-2.94-4.28-5.84-4.28c-2.54,0-2.77,0-2.77,1.47V332.77z M189.12,332.77c0,1.87,0,3.08,2.23,3.21
	c0.98,0.04,1.61,0.09,1.61,0.76c0,0.63-0.58,0.63-0.94,0.63c-0.94,0-2.41-0.18-5.35-0.18c-2.54,0-4.77,0.18-5.22,0.18
	c-0.36,0-0.94,0-0.94-0.67c0-0.63,0.67-0.67,1.61-0.71c2.23-0.18,2.23-1.34,2.23-3.17v-18.82c0-1.87,0-3.03-2.23-3.21
	c-0.98-0.04-1.61-0.09-1.61-0.76c0-0.62,0.58-0.62,0.94-0.62c0.94,0,2.54,0.18,5.26,0.18c3.21,0,4.64-0.18,5.31-0.18
	c0.36,0,0.94,0,0.94,0.67c0,0.62-0.67,0.67-1.61,0.71c-2.23,0.18-2.23,1.34-2.23,3.08V332.77z M220.43,323.09
	c0,6.47-3.26,13.38-9.5,13.38c-6.02,0-10.26-6.87-10.26-14.09c0-6.33,3.26-12.09,9.5-12.09
	C217.26,310.29,220.43,317.78,220.43,323.09z M225.78,322.91c0-7.67-6.73-13.78-15.07-13.78c-8.65,0-15.39,6.15-15.39,14.18
	c0,8.52,7.45,14.32,15.25,14.32C218.16,337.63,225.78,331.56,225.78,322.91z M253.3,329.96l-0.18-13.74
	c-0.09-5.4-0.58-5.4-2.36-5.49c-1.34-0.04-2.01-0.09-2.01-0.71c0-0.62,0.8-0.62,1.12-0.62c0.49,0,2.99,0.18,3.57,0.18
	c0.67,0,4.01-0.18,4.77-0.18c0.22,0,0.8,0,0.8,0.67c0,0.54-0.45,0.67-1.74,0.76c-1.65,0.18-2.32,0.27-2.27,2.72l0.09,23.33
	c0,0.45,0,1.29-0.67,1.29c-0.36,0-0.67-0.04-1.43-1.03l-19-23.64l-0.09,0.09l0.18,15.34c0.04,6.47,0.58,6.91,2.59,7.09
	c1.78,0.13,2.01,0.13,2.01,0.71c0,0.63-0.71,0.63-1.07,0.63c-0.54,0-2.23-0.18-3.61-0.18c-2.27,0-4.28,0.18-5.08,0.18
	c-0.13,0-0.76,0-0.76-0.58c0-0.54,0.18-0.58,2.05-0.8c1.96-0.27,2.14-0.45,2.14-6.51v-14.85c0-3.43-0.31-3.88-2.32-3.88
	c-0.94-0.04-1.65-0.04-1.65-0.71c0-0.58,0.58-0.62,1.38-0.62c0.49,0,2.5,0.18,3.92,0.18c1.25,0,2.32-0.18,2.9-0.18
	c0.8,0,1.2,0.94,1.52,1.34l15.12,19.31L253.3,329.96z M275.78,313.95c0-1.83,0-3.03-2.23-3.17c-0.94-0.09-1.61-0.13-1.61-0.76
	c0-0.62,0.58-0.62,0.89-0.62c0.09,0,0.13,0.04,1.25,0.09c1.16,0.04,3.34,0.09,7.76,0.09h0.54c4.64,0,6.96-0.04,8.12-0.09
	c1.2-0.04,1.25-0.09,1.29-0.09c0.71,0,0.76,0.22,0.76,0.8v4.73c0,0.13,0,0.85-0.49,0.85c-0.49,0-0.8-0.67-0.89-0.89
	c-1.07-2.45-1.78-3.92-8.34-3.92c-1.52,0-2.27,0.09-2.27,2.19v5.93c0,2.41,0.13,2.45,0.71,2.54c0.67,0.09,2.05,0.09,2.72,0.09
	c3.61,0,4.1-1.03,4.82-3.3c0.09-0.36,0.27-0.71,0.71-0.71c0.45,0,0.54,0.31,0.54,0.76c0,0.62-0.13,3.66-0.13,4.33
	c0,0.4,0,1.16,0.09,2.18l0.18,2.1c0,0.31,0,0.85-0.54,0.85c-0.45,0-0.67-0.4-0.71-0.71c-0.09-0.22-0.4-1.47-0.49-1.7
	c-0.62-2.41-3.48-2.41-4.59-2.41c-3.3,0-3.3,0-3.3,2.1v7.58c0,1.74,0,3.08,2.05,3.21c1.29,0.04,1.92,0.09,1.92,0.76
	c0,0.63-0.58,0.63-0.94,0.63c-1.52,0-3.88-0.18-5.4-0.18c-1.47,0-3.83,0.18-5.31,0.18c-0.36,0-0.94,0-0.94-0.67
	c0-0.63,0.67-0.67,1.61-0.71c2.23-0.18,2.23-1.34,2.23-3.17V313.95z M302.94,313.46c0-1.74,0.04-2.81,2.1-2.81
	c5.53,0,6.15,4.77,6.15,6.38c0,5.58-4.42,5.58-6.02,5.58c-2.23,0-2.23-0.09-2.23-1.65V313.46z M298.17,332.81
	c0,1.87,0,3.03-2.18,3.21c-0.94,0.04-1.61,0.09-1.61,0.71c0,0.67,0.58,0.63,0.94,0.63c0.8,0,4.42-0.18,5.17-0.18
	c0.18,0,4.5,0.18,5.35,0.18c0.36,0,0.94,0.04,0.94-0.58c0-0.67-0.63-0.71-1.61-0.76c-2.23-0.13-2.23-1.34-2.23-3.21v-8.03
	c0-0.76,0.09-1.03,0.85-1.03c2.01,0,2.23,0.18,3.21,2.1l5.4,10.17c0.49,0.94,0.67,1.34,1.47,1.34c0.4,0,2.05-0.18,2.41-0.18
	c0.67,0,3.57,0.18,4.15,0.18c0.31,0,0.76-0.04,0.76-0.54c0-0.58-0.36-0.63-1.83-0.8c-1.25-0.18-1.87-1.29-2.77-2.85l-4.33-7.67
	c-1.03-1.87-1.56-2.14-2.14-2.5c1.52-0.31,6.11-1.38,6.11-6.6c0-1.56-0.67-7-8.56-7c-1.34,0-7.27,0.18-8.47,0.18
	c-0.54,0-2.72-0.18-3.17-0.18c-1.47,0-1.65,0-1.65,0.62c0,0.62,0.63,0.67,1.61,0.71c2.18,0.13,2.18,1.34,2.18,3.17V332.81z
	 M330.19,325.36c-0.8,0-1.07,0-1.07-0.45c0-0.31,0.13-0.76,0.18-0.85l2.76-7.54l3.12,7.67c0.13,0.27,0.27,0.62,0.27,0.85
	c0,0.13,0,0.31-1.03,0.31H330.19z M335.09,326.97c1.2,0,1.34,0,1.83,1.34l1.92,5.35c0.09,0.18,0.31,0.85,0.31,1.29
	c0,0.67-0.4,0.89-1.56,0.98c-0.89,0.09-1.61,0.22-1.61,0.8c0,0.63,0.58,0.63,1.03,0.63c0.13,0,2.45-0.18,5.17-0.18
	c0.76,0,4.46,0.18,5.22,0.18c0.27,0,1.03,0,1.03-0.58s-0.49-0.67-1.25-0.76c-1.83-0.27-2.27-1.25-3.7-4.68l-6.96-16.95
	c-0.36-0.85-0.85-2.1-1.29-3.35c-0.67-1.83-0.8-2.14-1.29-2.14c-0.45,0-0.45,0.04-2.1,4.37c-2.94,7.72-6.87,18.15-8.3,20.92
	c-0.85,1.56-1.25,1.61-2.72,1.74c-0.71,0.09-1.34,0.18-1.34,0.76c0,0.67,0.58,0.67,0.85,0.67c0.58,0,3.21-0.18,3.7-0.18
	c1.29,0,3.92,0.18,4.37,0.18c1.03,0,1.56,0,1.56-0.63c0-0.54-0.54-0.67-1.7-0.71c-1.03-0.04-2.14-0.13-2.14-1.25
	c0-0.54,0.4-1.74,0.4-1.87l1.52-4.77c0.36-1.16,0.36-1.16,1.69-1.16H335.09z M373.94,329.96l-0.18-13.74
	c-0.09-5.4-0.58-5.4-2.36-5.49c-1.34-0.04-2.01-0.09-2.01-0.71c0-0.62,0.8-0.62,1.12-0.62c0.49,0,2.99,0.18,3.57,0.18
	c0.67,0,4.01-0.18,4.77-0.18c0.22,0,0.8,0,0.8,0.67c0,0.54-0.45,0.67-1.74,0.76c-1.65,0.18-2.32,0.27-2.27,2.72l0.09,23.33
	c0,0.45,0,1.29-0.67,1.29c-0.36,0-0.67-0.04-1.43-1.03l-19-23.64l-0.09,0.09l0.18,15.34c0.04,6.47,0.58,6.91,2.59,7.09
	c1.78,0.13,2.01,0.13,2.01,0.71c0,0.63-0.71,0.63-1.07,0.63c-0.54,0-2.23-0.18-3.61-0.18c-2.28,0-4.28,0.18-5.08,0.18
	c-0.13,0-0.76,0-0.76-0.58c0-0.54,0.18-0.58,2.05-0.8c1.96-0.27,2.14-0.45,2.14-6.51v-14.85c0-3.43-0.31-3.88-2.32-3.88
	c-0.94-0.04-1.65-0.04-1.65-0.71c0-0.58,0.58-0.62,1.38-0.62c0.49,0,2.5,0.18,3.92,0.18c1.25,0,2.32-0.18,2.9-0.18
	c0.8,0,1.21,0.94,1.52,1.34l15.12,19.31L373.94,329.96z M416.49,325.36c-0.8,0-1.07,0-1.07-0.45c0-0.31,0.13-0.76,0.18-0.85
	l2.77-7.54l3.12,7.67c0.13,0.27,0.27,0.62,0.27,0.85c0,0.13,0,0.31-1.03,0.31H416.49z M421.4,326.97c1.2,0,1.34,0,1.83,1.34
	l1.92,5.35c0.09,0.18,0.31,0.85,0.31,1.29c0,0.67-0.4,0.89-1.56,0.98c-0.89,0.09-1.61,0.22-1.61,0.8c0,0.63,0.58,0.63,1.03,0.63
	c0.13,0,2.45-0.18,5.17-0.18c0.76,0,4.46,0.18,5.22,0.18c0.27,0,1.03,0,1.03-0.58s-0.49-0.67-1.25-0.76
	c-1.83-0.27-2.27-1.25-3.7-4.68l-6.96-16.95c-0.36-0.85-0.85-2.1-1.29-3.35c-0.67-1.83-0.8-2.14-1.29-2.14
	c-0.45,0-0.45,0.04-2.1,4.37c-2.94,7.72-6.87,18.15-8.29,20.92c-0.85,1.56-1.25,1.61-2.72,1.74c-0.71,0.09-1.34,0.18-1.34,0.76
	c0,0.67,0.58,0.67,0.85,0.67c0.58,0,3.21-0.18,3.7-0.18c1.29,0,3.92,0.18,4.37,0.18c1.03,0,1.56,0,1.56-0.63
	c0-0.54-0.54-0.67-1.69-0.71c-1.03-0.04-2.14-0.13-2.14-1.25c0-0.54,0.4-1.74,0.4-1.87l1.52-4.77c0.36-1.16,0.36-1.16,1.7-1.16
	H421.4z M445.65,332.77c0,1.87,0,3.08,2.23,3.21c0.98,0.04,1.61,0.09,1.61,0.76c0,0.63-0.58,0.63-0.94,0.63
	c-0.94,0-2.41-0.18-5.35-0.18c-2.54,0-4.77,0.18-5.22,0.18c-0.36,0-0.94,0-0.94-0.67c0-0.63,0.67-0.67,1.61-0.71
	c2.23-0.18,2.23-1.34,2.23-3.17v-18.82c0-1.87,0-3.03-2.23-3.21c-0.98-0.04-1.61-0.09-1.61-0.76c0-0.62,0.58-0.62,0.94-0.62
	c0.94,0,2.54,0.18,5.26,0.18c3.21,0,4.64-0.18,5.31-0.18c0.36,0,0.94,0,0.94,0.67c0,0.62-0.67,0.67-1.61,0.71
	c-2.23,0.18-2.23,1.34-2.23,3.08V332.77z M459.75,337.63c-3.48,0-6.29-1.2-7.09-1.78c-0.49-0.36-0.54-0.98-0.54-2.1
	c0-0.18,0-2.41,0.13-4.01c0-0.18,0.04-0.8,0.58-0.8c0.4,0,0.54,0.36,0.63,0.76c0.85,3.97,3.88,6.78,7.05,6.78
	c1.87,0,5.31-1.34,5.31-4.95c0-3.48-3.03-5.17-6.24-6.65c-3.61-1.61-7.14-3.34-7.14-8.07c0-4.1,3.12-7.67,8.79-7.67
	c2.59,0,5.22,0.71,5.84,1.03c0.54,0.31,0.54,0.71,0.54,4.64c0,0.98,0,1.34-0.62,1.34c-0.45,0-0.63-0.27-1.07-1.65
	c-0.54-1.74-1.34-4.28-5.04-4.28c-3.66,0-4.86,2.54-4.86,4.28c0,3.17,2.59,4.28,6.15,5.75c2.5,1.07,7.18,3.26,7.18,8.3
	C469.34,333.48,465.68,337.63,459.75,337.63z M475.94,313.95c0-1.83,0-3.03-2.23-3.17c-0.98-0.04-1.61-0.09-1.61-0.76
	c0-0.62,0.58-0.62,0.89-0.62c0.09,0,0.13,0.04,1.12,0.09c0.98,0.04,2.9,0.09,6.69,0.09h2.14c4.59,0,6.87-0.04,8.07-0.09
	c1.16-0.04,1.21-0.09,1.34-0.09c0.54,0,0.54,0.36,0.54,1.38v4.1c0,0.22,0,0.76-0.45,0.76c-0.49,0-0.58-0.18-1.38-1.83
	c-0.54-1.16-1.61-2.85-7.94-2.85c-2.23,0-2.41,0.31-2.41,2.54v6.47c0,1.43,0,1.78,2.59,1.78c4.95,0,5.35-0.98,6.15-3.34
	c0.22-0.58,0.45-0.67,0.67-0.67c0.27,0,0.49,0.13,0.49,0.62c0,0.63-0.31,5.22-0.31,6.2c0,0.31,0.13,1.87,0.13,2.23
	c0,0.27,0,0.89-0.54,0.89c-0.36,0-0.63-0.22-0.85-1.07c-0.94-3.43-2.19-3.48-5.84-3.48c-2.14,0-2.5,0-2.5,1.34v7.67
	c0,3.17,0.94,3.66,4.68,3.66c1.96,0,4.73,0,6.69-3.79c0.8-1.56,0.89-1.74,1.29-1.74s0.54,0.4,0.54,0.67c0,0.58-0.49,3.43-0.62,5.08
	c-0.04,0.85-0.49,1.34-1.78,1.34c-2.27,0-5.4-0.04-7.98-0.09c-2.54-0.04-4.64-0.09-4.91-0.09h-0.54c-1.83,0-2.94,0.04-3.66,0.09
	c-0.71,0.04-1.07,0.09-1.38,0.09c-0.36,0-0.94,0-0.94-0.67c0-0.63,0.67-0.67,1.61-0.76c2.23-0.13,2.23-1.34,2.23-3.17V313.95z
	 M108.79,367.72c0-2.5,0.27-3.57,2.94-3.57c9.46,0,12.44,7.98,12.44,13.07c0,7.14-5.26,12.62-11.19,12.62
	c-3.43,0-4.19-1.56-4.19-4.42V367.72z M104.02,386.41c0,1.83,0,3.03-2.27,3.17c-0.89,0.04-1.56,0.09-1.56,0.76
	c0,0.62,0.58,0.62,0.89,0.62c0.22,0,4.46-0.18,5.26-0.18c1.11,0,6.87,0.18,8.16,0.18c11.64,0,14.94-9.23,14.94-14
	c0-4.33-2.27-8.61-5.93-11.11c-2.85-1.96-6.07-2.85-11.82-2.85c-4.15,0-11.6,0.63-11.6,1.87c0,0.36,0.22,0.49,0.62,0.49
	c0.31,0,1.61-0.36,1.87-0.36c0.89,0,1.43,0.63,1.43,2.45V386.41z M137.69,364.6c0,0.49-0.04,1.29-0.18,2.41l-0.62,5.75
	c-0.09,0.71-0.45,1.12-0.94,1.12c-0.49,0-0.85-0.4-0.94-1.12l-0.62-5.75c-0.13-1.12-0.13-1.92-0.13-2.41c0-1.69,1.11-1.87,1.69-1.87
	C136.53,362.73,137.69,362.91,137.69,364.6z M145.99,367.55c0-1.83,0-3.03-2.23-3.17c-0.98-0.04-1.61-0.09-1.61-0.76
	c0-0.63,0.58-0.63,0.89-0.63c0.09,0,0.13,0.04,1.12,0.09c0.98,0.04,2.9,0.09,6.69,0.09h2.14c4.59,0,6.87-0.04,8.07-0.09
	c1.16-0.04,1.2-0.09,1.34-0.09c0.54,0,0.54,0.36,0.54,1.38v4.1c0,0.22,0,0.76-0.45,0.76c-0.49,0-0.58-0.18-1.38-1.83
	c-0.54-1.16-1.61-2.85-7.94-2.85c-2.23,0-2.41,0.31-2.41,2.54v6.47c0,1.43,0,1.78,2.59,1.78c4.95,0,5.35-0.98,6.15-3.34
	c0.22-0.58,0.45-0.67,0.67-0.67c0.27,0,0.49,0.13,0.49,0.62c0,0.62-0.31,5.22-0.31,6.2c0,0.31,0.13,1.87,0.13,2.23
	c0,0.27,0,0.89-0.54,0.89c-0.36,0-0.62-0.22-0.85-1.07c-0.94-3.43-2.19-3.48-5.84-3.48c-2.14,0-2.5,0-2.5,1.34v7.67
	c0,3.17,0.94,3.66,4.68,3.66c1.96,0,4.73,0,6.69-3.79c0.8-1.56,0.89-1.74,1.29-1.74c0.4,0,0.54,0.4,0.54,0.67
	c0,0.58-0.49,3.43-0.62,5.08c-0.04,0.85-0.49,1.34-1.78,1.34c-2.27,0-5.4-0.04-7.98-0.09c-2.54-0.05-4.64-0.09-4.91-0.09h-0.54
	c-1.83,0-2.94,0.04-3.66,0.09c-0.71,0.04-1.07,0.09-1.38,0.09c-0.36,0-0.94,0-0.94-0.67c0-0.62,0.67-0.67,1.61-0.76
	c2.23-0.13,2.23-1.34,2.23-3.17V367.55z M181.26,390.42c-6.29,0-9.95-7.85-9.95-14.27c0-4.37,1.74-12.26,9.01-12.26
	c6.02,0,10.84,6.11,10.84,13.38C191.17,384.63,186.71,390.42,181.26,390.42z M195.54,397.74c-0.45,0.09-1.03,0.09-1.16,0.09
	c-4.37,0-7.89-3.66-9.86-6.11c-0.31-0.4,0-0.71,0.85-0.89c6.51-1.29,11.15-7.09,11.15-13.87c0-8.25-7.05-14.23-15.3-14.23
	c-8.83,0-15.25,6.24-15.25,14.23c0,6.51,4.55,12.13,10.66,13.87c0.98,0.27,2.27,0.54,2.27,0.54c0.27,0,0.27,0.63,0.31,1.25
	c0.22,2.85,5.08,6.82,12.35,6.82c2.23,0,5.57-0.58,5.57-1.43c0-0.36-0.22-0.49-0.49-0.49C196.52,397.52,195.71,397.7,195.54,397.74z
	 M221.18,368.71c0-3.75-0.36-4.24-2.77-4.42c-0.94-0.04-1.47-0.09-1.47-0.71c0-0.58,0.62-0.58,1.03-0.58c0.71,0,1.69,0.18,3.75,0.18
	c1.74,0,3.7-0.18,4.33-0.18c0.67,0,0.76,0.45,0.76,0.63c0,0.62-0.8,0.67-1.43,0.71c-2.05,0.13-2.54,0.4-2.54,4.1v13.91
	c0,2.45,0,8.88-9.99,8.88c-6.07,0-11.68-1.65-11.68-9.14v-14.5c0-1.87,0-3.08-2.23-3.21c-0.94-0.04-1.61-0.09-1.61-0.76
	c0-0.63,0.58-0.63,0.94-0.62c0.45,0,2.19,0.18,5.26,0.18c3.08,0,5.13-0.18,5.4-0.18c0.36,0,0.89,0,0.89,0.67
	c0,0.63-0.62,0.67-1.56,0.71c-2.32,0.18-2.32,1.34-2.32,3.08v13.96c0,3.08,0,8.56,7.63,8.56c7.09,0,7.63-4.77,7.63-7.45V368.71z
	 M236.61,386.37c0,1.87,0,3.08,2.23,3.21c0.98,0.04,1.61,0.09,1.61,0.76c0,0.62-0.58,0.62-0.94,0.62c-0.94,0-2.41-0.18-5.35-0.18
	c-2.54,0-4.77,0.18-5.22,0.18c-0.36,0-0.94,0-0.94-0.67c0-0.62,0.67-0.67,1.61-0.71c2.23-0.18,2.23-1.34,2.23-3.17v-18.82
	c0-1.87,0-3.03-2.23-3.21c-0.98-0.04-1.61-0.09-1.61-0.76c0-0.63,0.58-0.63,0.94-0.62c0.94,0,2.54,0.18,5.26,0.18
	c3.21,0,4.64-0.18,5.31-0.18c0.36,0,0.94,0,0.94,0.67c0,0.63-0.67,0.67-1.61,0.71c-2.23,0.18-2.23,1.34-2.23,3.08V386.37z
	 M256.82,386.37c0,1.83,0,3.03,2.23,3.17c0.94,0.04,1.56,0.09,1.56,0.76c0,0.67-0.58,0.67-0.94,0.67c-1.47,0-3.79-0.18-5.26-0.18
	c-0.76,0-4.37,0.18-5.22,0.18c-0.36,0-0.94,0-0.94-0.67c0-0.62,0.63-0.67,1.56-0.76c2.23-0.13,2.23-1.34,2.23-3.08v-20.74
	c0-1.16-0.36-1.16-1.25-1.16c-2.68,0-5.62,0-7.89,4.24c-0.4,0.71-0.63,0.89-1.03,0.89c-0.36,0-0.58-0.31-0.58-0.58
	c0-0.22,0.09-0.49,0.13-0.71l1.83-6.29c0.13-0.54,0.27-0.8,0.67-0.8c0.36,0,0.49,0.22,0.54,0.62c0.22,1.2,1.03,1.25,2.01,1.25h14.32
	c4.59,0,4.82-0.58,5.13-1.38c0.13-0.36,0.27-0.62,0.62-0.62c0.62,0,0.62,0.71,0.62,1.78l-0.31,5.44c-0.04,0.89-0.13,1.43-0.71,1.43
	c-0.22,0-0.54-0.04-0.71-0.98c-0.76-4.28-2.94-4.28-5.84-4.28c-2.54,0-2.76,0-2.76,1.47V386.37z M274.22,378.96
	c-0.8,0-1.07,0-1.07-0.45c0-0.31,0.13-0.76,0.18-0.85l2.77-7.54l3.12,7.67c0.13,0.27,0.27,0.62,0.27,0.85c0,0.13,0,0.31-1.03,0.31
	H274.22z M279.13,380.57c1.2,0,1.34,0,1.83,1.34l1.92,5.35c0.09,0.18,0.31,0.85,0.31,1.29c0,0.67-0.4,0.89-1.56,0.98
	c-0.89,0.09-1.61,0.22-1.61,0.8c0,0.62,0.58,0.62,1.03,0.62c0.13,0,2.45-0.18,5.17-0.18c0.76,0,4.46,0.18,5.22,0.18
	c0.27,0,1.03,0,1.03-0.58c0-0.58-0.49-0.67-1.25-0.76c-1.83-0.27-2.27-1.25-3.7-4.68l-6.96-16.95c-0.36-0.85-0.85-2.1-1.29-3.34
	c-0.67-1.83-0.8-2.14-1.29-2.14c-0.45,0-0.45,0.04-2.1,4.37c-2.94,7.72-6.87,18.15-8.29,20.92c-0.85,1.56-1.25,1.61-2.72,1.74
	c-0.71,0.09-1.34,0.18-1.34,0.76c0,0.67,0.58,0.67,0.85,0.67c0.58,0,3.21-0.18,3.7-0.18c1.29,0,3.92,0.18,4.37,0.18
	c1.03,0,1.56,0,1.56-0.62c0-0.54-0.54-0.67-1.69-0.71c-1.03-0.04-2.14-0.13-2.14-1.25c0-0.54,0.4-1.74,0.4-1.87l1.52-4.77
	c0.36-1.16,0.36-1.16,1.7-1.16H279.13z M305.04,386.37c0,1.83,0,3.03,2.23,3.17c0.94,0.04,1.56,0.09,1.56,0.76
	c0,0.67-0.58,0.67-0.94,0.67c-1.47,0-3.79-0.18-5.26-0.18c-0.76,0-4.37,0.18-5.22,0.18c-0.36,0-0.94,0-0.94-0.67
	c0-0.62,0.63-0.67,1.56-0.76c2.23-0.13,2.23-1.34,2.23-3.08v-20.74c0-1.16-0.36-1.16-1.25-1.16c-2.68,0-5.62,0-7.89,4.24
	c-0.4,0.71-0.62,0.89-1.03,0.89c-0.36,0-0.58-0.31-0.58-0.58c0-0.22,0.09-0.49,0.13-0.71l1.83-6.29c0.13-0.54,0.27-0.8,0.67-0.8
	c0.36,0,0.49,0.22,0.54,0.62c0.22,1.2,1.03,1.25,2.01,1.25h14.32c4.59,0,4.82-0.58,5.13-1.38c0.13-0.36,0.27-0.62,0.62-0.62
	c0.62,0,0.62,0.71,0.62,1.78l-0.31,5.44c-0.04,0.89-0.13,1.43-0.71,1.43c-0.22,0-0.54-0.04-0.71-0.98
	c-0.76-4.28-2.94-4.28-5.84-4.28c-2.54,0-2.76,0-2.76,1.47V386.37z M325.2,386.37c0,1.87,0,3.08,2.23,3.21
	c0.98,0.04,1.61,0.09,1.61,0.76c0,0.62-0.58,0.62-0.94,0.62c-0.94,0-2.41-0.18-5.35-0.18c-2.54,0-4.77,0.18-5.22,0.18
	c-0.36,0-0.94,0-0.94-0.67c0-0.62,0.67-0.67,1.61-0.71c2.23-0.18,2.23-1.34,2.23-3.17v-18.82c0-1.87,0-3.03-2.23-3.21
	c-0.98-0.04-1.61-0.09-1.61-0.76c0-0.63,0.58-0.63,0.94-0.62c0.94,0,2.54,0.18,5.26,0.18c3.21,0,4.64-0.18,5.31-0.18
	c0.36,0,0.94,0,0.94,0.67c0,0.63-0.67,0.67-1.61,0.71c-2.23,0.18-2.23,1.34-2.23,3.08V386.37z M356.51,376.69
	c0,6.47-3.26,13.38-9.5,13.38c-6.02,0-10.26-6.87-10.26-14.09c0-6.33,3.26-12.09,9.5-12.09
	C353.34,363.89,356.51,371.38,356.51,376.69z M361.86,376.51c0-7.67-6.73-13.78-15.07-13.78c-8.65,0-15.39,6.16-15.39,14.18
	c0,8.52,7.45,14.32,15.25,14.32C354.23,391.23,361.86,385.16,361.86,376.51z M389.38,383.56l-0.18-13.74
	c-0.09-5.4-0.58-5.4-2.36-5.49c-1.34-0.04-2.01-0.09-2.01-0.71c0-0.63,0.8-0.63,1.12-0.62c0.49,0,2.99,0.18,3.57,0.18
	c0.67,0,4.01-0.18,4.77-0.18c0.22,0,0.8,0,0.8,0.67c0,0.54-0.45,0.67-1.74,0.76c-1.65,0.18-2.32,0.27-2.27,2.72l0.09,23.33
	c0,0.45,0,1.29-0.67,1.29c-0.36,0-0.67-0.04-1.43-1.03l-19-23.64l-0.09,0.09l0.18,15.34c0.04,6.47,0.58,6.91,2.59,7.09
	c1.78,0.13,2.01,0.13,2.01,0.71c0,0.62-0.71,0.62-1.07,0.62c-0.54,0-2.23-0.18-3.61-0.18c-2.27,0-4.28,0.18-5.08,0.18
	c-0.13,0-0.76,0-0.76-0.58c0-0.54,0.18-0.58,2.05-0.8c1.96-0.27,2.14-0.45,2.14-6.51v-14.85c0-3.43-0.31-3.88-2.32-3.88
	c-0.94-0.04-1.65-0.04-1.65-0.71c0-0.58,0.58-0.63,1.38-0.62c0.49,0,2.5,0.18,3.92,0.18c1.25,0,2.32-0.18,2.9-0.18
	c0.8,0,1.2,0.94,1.52,1.34l15.12,19.31L389.38,383.56z M405.65,331.99c-0.28,0-0.57,0.3-0.88,0.64l-0.13,0.14
	c-1.84,1.78-4.29,2.72-7.1,2.72c-7.14,0-11.57-6.62-11.57-12.75c0-3.85,1.67-7.6,4.46-10.03c1.49-1.26,4-2.53,6.24-2.53
	c3.05,0,4.62,2.52,5.89,4.54c0.81,1.3,1.46,2.32,2.28,2.32l0.51-0.22c0.51-0.54,0.41-1.96,0.36-2.72l-0.02-0.34l0.03-0.55
	c0.06-0.8,0.12-1.8-0.57-2.28c-2.08-1.43-5.46-2.08-7.73-2.08c-8.85,0-16.32,6.93-16.32,15.13c0,6.29,4.45,11.95,10.6,13.53
	c-0.16,0.21-2.41,3.2-2.41,3.2c0,0-0.13,0.18-0.13,0.18c-0.32,0.43-0.64,0.87-0.64,1.13c0,0.22,0.1,0.47,0.6,0.47l2.43-0.19
	c3.63,0,5.39,0.99,5.39,3.02c0,1.84-2.16,3.27-4.02,3.27c-1.78,0-2.54-0.96-3.16-1.74c-0.43-0.54-0.8-1.01-1.4-1.01
	c-0.65,0-1.22,0.63-1.22,1.35c0,2.17,4.09,2.66,5.53,2.66c2.71,0,6.46-1.79,6.46-5.15c0-3.19-4.23-4.03-6.46-4.03
	c-0.01,0-1.08,0.08-1.53,0.11c0.24-0.31,2.23-2.93,2.23-2.94c0,0.04,1.79,0.16,1.79,0.16c3.46,0,6.61-1.06,9.11-3.08
	c0.87-0.75,1.91-1.75,1.91-2.32C406.19,332.3,405.97,331.99,405.65,331.99z"/>
<path fill="#525658" d="M373.68,121.32c0,0,8.75-8,25-3c0,0,16.75,5.25,27.5,18.5c0,0-2.25,1.5-2,3.75c0,0,0.25,2.17,2.5,2.67
	c0,0,2.58,0.67,3.42-1.33c0,0,0.67-1.17-0.17-2.58l4.75-3.25c0,0,3.25,4.5,1.08,8.83c0,0-1.5,4.92-8.67,5.08c0,0-5.25,0.08-8-4
	c0,0-2.17-2.92-0.92-7.67c0,0-7-6.83-14.42-10.5c0,0-8.17-4.67-15.83-5c0,0-4.58,0.08-7.75,1.75l-3.5,2L373.68,121.32z
	 M441.68,141.82l11.75-4.5l-3-19c-4.5,2.75-7.25-1.25-7.25-1.25c-2.5-3.25,0-7,0-7l-49.25-42.5c0.5,5-1.75,6.5-1.75,6.5l43.25,38.75
	c-0.5,5.5,2.5,8.75,2.5,8.75c2.5,2.75,7.5,3.75,7.5,3.75l1.25,8l-3,0.25c-7.25-6.25-14.5-3.25-14.5-3.25
	C440.18,134.82,441.68,141.82,441.68,141.82z M349.43,36.32l10.5,10c-2.17,5.17,1,12.25,1,12.25c1.25-6.75,8.5-12.25,8.5-12.25
	l-17-15.25L349.43,36.32z M386.43,65.32c0,5.66-4.59,10.25-10.25,10.25c-5.66,0-10.25-4.59-10.25-10.25
	c0-5.66,4.59-10.25,10.25-10.25C381.84,55.07,386.43,59.65,386.43,65.32z M379.8,65.32c0-2.07-1.68-3.75-3.75-3.75
	c-2.07,0-3.75,1.68-3.75,3.75c0,2.07,1.68,3.75,3.75,3.75C378.13,69.07,379.8,67.39,379.8,65.32z M339.01,20.32
	c-13.58,7.75-50.58,34-50.58,34c-34.5,25.5-70.25,61.25-70.25,61.25c-26.25,26.5-43.75,56-43.75,56c-15.17,24.25-28.5,59-28.5,59
	c-5.58-20.5-16.17-34-16.17-34c-10.5-15.75-35.08-30.25-35.08-30.25c-28.5-17.25-51-21.5-51-21.5c8.75,2.25,27.67,11.42,27.67,11.42
	c24.5,11.33,41.92,28.25,41.92,28.25c28.5,25,28.92,74.83,28.92,74.83h1c11-32.33,19.08-49.17,19.08-49.17
	c12.5-27.25,29.67-52.08,29.67-52.08c17.75-25.5,39.5-45.75,39.5-45.75c21.5-21.75,52.5-46.25,52.5-46.25
	c32-24.25,58.25-39.5,58.25-39.5c-13.67,17.5-17.58,40.17-17.58,40.17c-4.25,29.75,11.33,43.83,11.33,43.83
	c10,9.25,24.25,7.75,24.25,7.75c17.17-2.67,21.75-14.5,21.75-14.5l-4.75-3.5c-5.25,8-13.75,10.25-13.75,10.25
	c-15.75,5-25-7.5-25-7.5c-9.25-14-7.5-29-7.5-29c1.58-19.08,11.75-35.5,11.75-35.5c12.25-22.75,31.5-38,31.5-38
	C369.18,2.57,339.01,20.32,339.01,20.32z"/>
<path fill="#E73137" d="M287.43,40.07h0.75l1-0.75h0.75l0.25-0.75l0.75,0.25h1l0.75-0.25l1.25-0.75l1.5-0.75l1.75-0.5l1.25-0.25h0.75
	l2.25-0.25h0.75l0.75-0.25l0.75,0.25l1.25-0.25l1.25-0.5h1l1-0.5l1.25-0.5l1.25-0.25l2.25-0.5h1.5l0.33,1.33l-2,0.5l-2.5,0.5
	l-2.08,1.08l-1.75,0.25l-1.83,0.5l-3.17,0.17l-1.5,0.17l-0.83,0.5l-1.67,0.5l-1.33,1.83l-1.92-0.33l0.25,1h1h1l2-0.5h1.75l0.75-0.5
	l1-0.25l1.25-0.75h0.75h0.75l0.75-0.25l1,0.5l-0.75,0.75h-0.75h-1l-0.83,1.17l-1.17,0.5h-1.17l-0.83-0.17l-0.75,0.25l-1,0.25
	l-0.42,0.17v0.83l-2.08-0.25l0.25,0.75l0.25,1.25l-0.25,1l-1.75,0.75l-1.25,0.83l-0.75-0.33l-0.75,0.5l-2.5,0.25l-1.83,1.42
	l-1.92,0.08l-0.5,0.75l-0.75,1l-0.5,0.75l-1.25,0.25l-1,0.25l-1.08,1.08l-1.42,0.67l-1,0.5l-0.92,0.67l-1.58-0.42l0.08,1.08
	l-1.58-0.08l-0.75,0.5l-0.25,1l-0.75,0.25h-1.17l-0.58-0.25l-0.75,0.75l-0.5,0.75l-0.67,1.08l-1.08-0.33l-0.75,0.5l-1,1l-1.5,0.75
	l-0.75,0.25l-1.75,0.75l-1.5,1l-1,0.5l-1,0.75l-1.25,0.5l-1,0.5l-0.75,0.25l-1.25,0.5l-0.75,0.5l-1.5,0.75l-1,0.75l-0.75,0.25
	l-0.75,0.67l-1,1l-1.33,0.67l-0.67-0.08l-2.17,1.92l-1.33,0.83l-1.5,0.25l-2.25,1.5l-1.25,0.75l-2.25,1.5l-1.75,0.75l-1.33,0.92
	l-1.67,0.67l-2.75,1.67l-1,0.75l-2,1.75l-1,1l-1.75,1.25l-2.5,1l-0.83,0.75l-0.83,0.83l-0.83,0.42l-0.5,0.75l-1,1l-1.5,0.5
	l-0.75,0.5l-2.5,1l-1.25,1.5l-0.75,0.5l-0.75,0.5l-0.5,0.67l-0.83,0.17l-0.67,0.17l-1,0.75h-0.75l-1.08,1.58l-1.33,1.33l-1.5,0.83
	l-0.83,1l-1.25,0.25l-0.75,0.5l-1.25,0.5l0.42,1.25l-2.92,1l-0.25,1.5l-2.75-0.25l-0.92,2.75l-1.58,0.5l-2.25,1.25l-2.25,1.75
	l-1.25,1.25l-0.5,1.25l-1,0.75l-0.83,0.75l-0.67,0.25l-0.5,1l-0.75,0.75l-0.5,1l-0.75-0.33l-0.75-0.42l-0.25,1l-0.25,0.75l-0.5,0.75
	l-0.25,1l-1.25,1l-0.75,0.92l-1-0.67l-0.25,0.75l-0.25,1l-1.33,0.92l-1.33,1.17l-1.33,0.42l-0.75,1l-1,1.25l-0.5,0.75l-1.25,0.75
	l-1,1l-0.75,0.5l-1.25,0.75l-0.75,0.5l-0.75,0.75l-1.25,1.25l-0.75,0.75l-0.5,0.75l-0.75,2l-2.42,2.75l-2.83,2.75l-1.5,2l-1.25,1.25
	l-1.92,2.5l-1.83-0.75l2-2.75l1-2.5l1-0.75l1.67-1.58l0.17-1.33l1.5-1.5v-1.5l-1.83,2.5l-1.83,2.17l-1.17,0.83l-1.75,0.92
	l-1.25,2.25l-2.75-0.25l-1.5,1.5l-0.5,1.25l-1-0.25h-0.75l-2.17,0.67l-1.25,0.25l-1.33,0.58l-0.75,1l-1,0.25l-0.5,0.75l-0.75,1
	l-0.5,1l-0.5,0.75l-1,0.5l-0.75,0.5l-1.25,1l-1,1.25l-1.25,0.5l-1.25,1l-0.75,0.25h-1.17l-1.08-0.25l-1,0.5l0.25-1.75l1-1l1.5-1l1-1
	l0.5-0.75l0.75-0.5l1.25-2l1-1l1.75-2.5l0.75-0.75l1.5-1.5l1.25-0.75l1.25-1.25l1.5-1.25l1.5-2v-1.5l-0.75,0.75l-1,0.5l-0.75,0.5
	l-0.75,0.75l-1.5,0.5l-2.25,0.75l-1.5,0.25l-0.5,1.25l-2.25,0.5l-1.75,0.25l-2,0.75l0.75-2l2.5-2l1-1.25l-0.42-1.25l1.67-0.5v-1
	l-0.75-0.25l0.5-1.5l-1.25,0.5l-1.5,2l-1,1h-0.75l-0.25,0.75l-0.5,1l-2,0.75l-1.25,0.25l0.5-0.75l-0.5-1l1-0.5l0.5-1l1.5-1h0.75
	l0.5-0.75l1.25-0.5l0.5-1.25v-0.75l0.75-0.5l1-0.75l1-0.5l0.25-1.25l1.5-1l0.75-0.75l0.75-0.75h1.5l0.75-1.25l1.5-1.25l1.5-1.75
	l0.75-0.75l1-0.25l0.75-1l1-0.5l0.75-1.5l0.25-1.25l-0.75,0.25l-1.25,0.25l-0.75,0.25l-1.75,1.75l-2,1.5l-2,1l0.71-0.6l1.04-1.4
	l0.9-0.15l0.48-0.48l1-1l0.68-0.78l0.94-1.09v-0.75l-0.75-1l-1.25-0.5l-0.75,0.5l-0.5,0.75l-0.75,1l-1,1l-0.75,0.25h-0.75
	l-0.75,0.25l-0.25,1v0.75l-1,0.25l-1.25,1l-0.25,1h-1.25h-0.75l-1,0.75l-1.75,2h-1.25l-0.75,0.75l-0.25,0.75l-0.5,2l-0.02-1.34
	l-0.23,0.34l-1.5,0.75l-0.75,0.5l-1.25,0.5l-1.75,0.5l-0.25,1l-1.25,1l-0.75,0.25l-1-0.42l0.67-0.67l1.33-1.33l1.67-1.33l0.67-0.67
	l1.67-1l1.67-1l0.67-1.33l0.67-1.33l1-0.33l0.67-1l-1.67,0.17l-0.33-1.17l0.33-1l-0.33-1h-1.67l-2.33,0.33h0.67l1-1l1-1.33
	l0.67-1.33l1.33-0.67l0.67-1l1-0.33l1.67-1l0.67-0.67l1-1l1.67-1l2-1l1.67-0.67l-0.67-1l2-1l1-0.33l1.67-1.67l1.33-1h1.33l1-1
	l-0.33-1l2-0.33h1.33l1.33-1l0.67-0.67l1-0.67l1-0.67l1-1l0.67-0.67l1-0.33c0,0,0,0,1,0s1-0.33,1-0.33l-1.5-0.67l-1.83,0.17
	l1.33-2.17l1-1c0,0,0,0,1.67-1l1.33-1l0,0c0,0,0,0,1.67-1c1.67-1,0,0,0,0s0,0,1-0.33c1-0.33,0.67,0,0.67,0l1,0.33l0.33,1l1.33,0.33
	l-1-1.17l1-1.5l1.33-0.33h1.33l0.67-1.67c0,0,1,0,2-0.33c1-0.33,1-0.67,1-0.67l1.33-1l0,0c0,0,0,0,0.67-1c0.67-1,0,0,1.33,0
	l0.33,1.33c0,0,0.67-1.33,2.67-1c2,0.33,0,0,0,0s0,0,1.67-1.33c1.67-1.33-1-0.33-1-0.33l-2.83,1.67l-1.17-0.5l0.67-1.83l1-0.67
	l1-0.67l1-0.33l0.33-1.33l1.33-0.33l1-0.67c0,0,2-0.33,2.33-1.33c0.33-1,1-0.33,1-0.33s0,0,1.67-1.33l1.67-1.67c0,0,0,0,2-0.67
	s1.33-1.17,1.33-1.17s0,0.5,1.33-0.17c1.33-0.67,1.33-1,1.33-1s0,0,1-0.67s1.67-1,1.67-1l1-0.67l1.33-0.33l1.33-1.33l1.33-0.33
	l2-1.33l2.33-0.33l1.33-0.67c0,0,0,0,1.33-0.33c1.33-0.33,1.67-1.33,1.67-1.33l1-0.67l1.67-0.33l1.67-1h1l1-0.33l0.67-1l2-0.33
	l0.67-0.67l1-0.33l0.33-0.67l0.67-1h2h1h1l1.33-0.67l0.67-0.67l2.33-0.67l2-0.5l1.17-0.33l2.17-0.83c0,0,2,0.33,2.67-0.67
	c0.67-1,0,0,1.33-0.33c1.33-0.33,0,0,1,0.33c1,0.33,0.33-0.67,0.33-0.67l1-1l1,0.33l1-0.33l1.33-1l1.33,0.33l2.33-1.33l2.33-0.67
	h1.33l1.33-0.33l2-0.67l1.67-0.67l1.67-0.67l2-0.33h2l1.67-0.33c0,0,0,0,1-0.67c1-0.67,1.67-0.67,1.67-0.67s1.33,0,2.33-0.33
	s1-0.67,1-0.67l2-1l2.33-0.33l1,0.33l2-0.33l1.67-1.33l1.33-0.33l1.33-0.33h1l1-0.33h1.5h1.33c0,0-0.17,0.67,0.83-0.33
	s1.33-0.33,1.33-0.33l0.67-0.67l2-0.33h1.67h1.67L287.43,40.07z M352.09,27.57c0.5,0.17,0.17,0.83,0.17,0.83s0,0,0.83,0.67
	s0,0,0.5,0.5s0.5,0.33,0.5,0.33s0.5,0.33,1,0.17c0.5-0.17,0,1,2,0.67c2-0.33,1.67-0.5,1.67-0.5s2.67-0.83,3.17-1
	c0.5-0.17,0.5,0.67,2.5,0.67s1.17-0.5,1.17-0.5s0,0,0.83-0.17c0.83-0.17,0.5-0.17,1.17-0.17s1.33,0.17,2.5,0.17s2.17,0.33,3,0
	c0.83-0.33,0,0,1-0.17c1-0.17,1.33-0.17,1.33-0.17s0,0,0.83,0c0.83,0,0,0,1.33,0.17c1.19,0.15,1.53,0.12,2.83,0.33
	c1,0.17,0,0,1.17-0.33s0,0,0.67-0.33c0.67-0.33,0.5,0.17,1.17,0.67c0.67,0.5,0.67,0.5,0.67,0.5l2.17-0.5c0,0,0.5,0,1.33,0
	s0.67,0.17,1.67,0.17s0,0,1.17-0.17c1.17-0.17,0,0,0.5,0s0.5-0.33,0.5-0.33l0.67,0.17c0,0,0.33,0.17,1,0.33s0.83,0,1.67,0.17
	c0.83,0.17,0,0,0.67-0.17c0.67-0.17,0,0,1.67-0.17s0.33,0,1.33,0s1.33,0,1.33,0s1.17,0.33,2.33,0.33s1-0.33,1-0.33l0.67,0
	c0,0,0.83-0.17,1.33-0.17s1.67,0.33,2.33,0.17c0.67-0.17,1.33,0.17,1.33,0.17l0.5,0.5c0,0-0.17-0.17,0.67,0
	c0.83,0.17,1.33,0.33,1.33,0.33h1.17c0,0,0.33-0.17,1,0.17c0.67,0.33,0.83,0,0.83,0l0.5-0.67c0,0,0.67,0.83,1.33,0.33s0.33,0,1,0.17
	c0.67,0.17,0.83,0.67,0.83,0.67s0,0,1.33-0.17c1.33-0.17,0.33-0.83,0.33-0.83l-1-0.5l1.33-1c0,0,0.67-0.83-0.83-0.83
	s-1.67,0.83-2.67,0.67s-1.5,0-1.5,0l-0.5-0.83c0,0-1-0.5-1.5,0s-0.33,0.67-0.5,1.33c-0.17,0.67,0,0-1.17-0.33
	c-1.17-0.33-0.67-0.33-0.67-0.33s0,0-0.17-0.5c-0.17-0.5-1.17-0.33-1.17-0.33c-2.3,0.38,0.07-0.29-1.67,0c-2,0.33-1.5-0.5-1.5-0.5
	s-1,0.33-2.17,0c-1.17-0.33-0.67,0.17-1.67,0.17s-0.5,0.67-3.17,0c-2.67-0.67,0,0-2,0s0,0-1.5,0s0,0-2.83-0.17
	c-2.83-0.17-0.67-0.17-0.67-0.17s0,0-2.33,0c-2.33,0-1.33,0-1.33,0s-1.67,0.33-2.33,0.33s-0.5,0-2.33-0.17
	c-1.83-0.17-0.67-0.17-1.83,0c-1.17,0.17,0,0-0.83,0.17s0,0-1.17,0.17c-1.17,0.17-0.33,0-1.83-0.33c-1.5-0.33-0.5,0-1.5,0
	s-0.83,0-2.33,0s-0.5,0-1.33,0c-0.83,0-0.5,0-1.5,0s-0.83,0.17-2.17,0.17c-1.33,0-0.83,0-1.83,0.17c-1,0.17-1,0.17-2.33,0.33
	s-1,0.5-2,0.33s-0.5-0.67-0.5-0.67s0,0,0.67-0.17c0.67-0.17,0.83-0.33,0.83-0.33l1.5-0.67c0,0,0,0,0.5-0.17s0.33,0,1,0
	s0.33,0,1-0.17c0.67-0.17,0,0,1.17-0.5c0,0,0.5-0.17,2-0.5c1.5-0.33,0.67-0.33,0.67-0.33s0,0,0.67-0.17
	c0.67-0.17,0.67-0.17,0.67-0.17h1.33l0.67,0.33c0,0,0.67,0.17,1.33,0.17s1-0.67,1-0.67s0.83,0.17,1.33,0.33
	c0.5,0.17,0.5-0.5,0.5-0.5l1.33-0.33c0,0,0,0,1,0s0.67,0,1.17,0.17s0.67,0,1.33-0.17c0.67-0.17,0,0,1.67,0c1.67,0,0.67,0,0.67,0
	s0.5-0.17,0.33-1c-0.17-0.83-0.5-0.17-1.67-0.17c-1.17,0-1.17-0.17-1.17-0.17s0,0-1.17-0.17c-1.17-0.17,0,0-1,0s-0.5,0-0.5,0
	s-0.5,0-1.67,0.17c-1.17,0.17,0,0-1.33,0.17c-1.33,0.17,0,0-1-0.17c-1-0.17-0.33-0.33-0.33-0.33l0.5-0.5l0.67-0.33h0.5l0.33-0.67
	l-0.17-0.83c0,0-0.33-0.17-1.83-0.33c-1.5-0.17,0,0-1,0.33s0,0-1.67,0.33c-1.67,0.33-0.67,0.17-1.17,0.33s-1.33,0.5-1.33,0.5
	c-0.83,0-0.5,0.17-1.17,0.17c-0.67,0-0.5,0.33-0.5,0.33l-1.33,0.17c0,0-0.33,0.33-1,0.67c-0.67,0.33-0.33,0.17-0.33,0.17
	s0.17,0.17-1,0.17s-1.17,0.33-1.17,0.33s0,0-1,0.5s-0.83,0.33-1.33,0.33s-1,0.33-1,0.33s-0.5,0.33-1.17,0.67
	c-0.67,0.33-0.67,0.67-0.67,0.67S351.59,27.4,352.09,27.57z"/>
<path fill="#0058A2" d="M306.43,25.07l-2-0.25h-1.75l-2.25,0.25c0,0,0-0.25-1-0.25s0-0.25-1,0s0,0.25-1,0.25s-2,0-2,0l-2,0.5
	l-0.75,0.25l-1.5-0.25h-0.75l-1.75-0.25c0,0,0.25,0.75-0.75,0.5s0.25,0-1-0.25s-0.25-0.75-1.25-0.25s0,0.25-1,0.5s0.25,0-1,0.25
	s-1.25,0.25-1.25,0.25s-1,0-2,0s-1.75,0-1.75,0h-0.75h-1c-1,0.75-1,0.75-1.75,1s-0.5,0-1.5,0s-1,0-1,0h-0.75l-1.5,0.25l-1.25,0.5
	c-1,0.5-1.75,0.75-1.75,0.75s-0.75-1-1.25-0.25s-1.25,0.75-1.25,0.75l-0.75,1l-1.75,0.25l-1,0.5l-1.25,0.75l-1.75-0.25l-1.25,0.25
	h-0.75l-1,1.25l-1.5,0.33l-0.75-0.33c-1.75,0.5-1,0.5-1.75,0.5s-0.75,0-0.75,0s-0.25,0.25-1.25,0.5s-1,0.25-1,0.25l-0.75,0.25
	c0,0,0.25,0.25-1,0.5s-1.25,0.25-1.25,0.25l-1.75,1.5l-1,0.25c0,0,0.75-0.75-1-0.25s-1.75,0.5-1.75,0.5l-1.5,0.75
	c-1.25,0.25,0.5-0.5-1.25,0.25s-1.75,0.75-1.75,0.75s-0.75,0-1.5,0s-1.75-0.5-1.75-0.5s0,0.5-0.75,0.75s-0.75,0.25-0.75,0.25
	l-1,0.75c0,0-0.25,0.25-1,0.25s-0.75,0-0.75,0l-1.25,0.5l-1.25,1l-1.75,0.5l-1.5,0.25c-0.75,1-0.75,1-0.75,1l-1,0.5
	c0,0,0.25,0-1.25,0s-1.5,0-1.5,0l-1.5,0.75c-1.5,0.75,0.25,0.75-1.5,0.75s-1.75,0-1.75,0l-0.75,0.5c0,0-1.25-0.5-1.5,0.25
	s-0.25,0.75-0.25,0.75s0,0.5-1,0.75s-1,0.25-1,0.25l-1.75,0.75c0,0-0.75-1-0.75,0s-1.25,0.75-1.25,0.75s-0.5,0.75-1.25,1
	s-1.5,0.5-1.5,0.5l-0.75,0.25c0,0-0.75,0.75-1.5,1s1,0-0.75,0.25s-1.75,0.25-1.75,0.25s0.25,1-0.75,0.75s-2.25,0.5-2.25,0.5
	s-0.25,0.5-1,0.75s-1.5,0.5-1.5,0.5l-1.25,0.5l-1.5,0.5l-1,0.75l-1,1c0,0,0-0.25-0.75,0s-1.75,1-2.75,0.75s-0.5-1.75-1-0.25
	s-1.5,2-1.5,2s0.25,0.75-0.75,0.75s-2-0.25-2-0.25l-0.75,0.25c0,0,1.25,1.25-0.75,1.25s-1.75,0.92-1.75,0.92l-1.5,0.08l-1.75,0.75
	c0,0,0.5-0.75-0.75,0.25s-1.25,1-1.25,1l-1.5,0.25l-0.25,1.25l-1,0.5h-1.5l-1.75,0.25l-0.25,1.75h-0.75l-1.08,1.08l-1.5,1.17
	l-1.92,0.5l-2,1.5l-1,0.25l-0.92,1.42l-2.58,0.33h1.25l-1.67,1.5l-1.33,0.75l-0.75,0.5l-0.75,0.25l-1.5,0.5l-2.25-0.25l-1,0.25
	l-1,0.5h-1.25l-0.75,0.5l-0.75,0.5l-1,0.75l-1.5,0.5l-1,0.75h-1l-0.75,0.75l-1.75,1.25l-2,1.5l-1,0.75l-1.25,0.25l-1,0.75l-1,0.75
	l-1,0.5l-1.5,0.25l-1,0.75l-1,0.75h-1.75l-2.75,0.75l-1,0.25l-1.75-0.25l-1.25,0.5l-0.75,0.25l-2,0.75l-0.5,1l-1.25,0.75l-2,1
	l-1.25,0.75l-1,0.5l-2,1.25l-1.25,0.75l-1.08,0.67l0.08-1.42l-1.25-0.5l-1.25,1.5l-1.5,0.25l0.25-1.75l0.75-0.25l2.25-1l1.25-1
	l1-0.75l1-1.25l1.5-1l0.75-0.5l1-1l1.25-0.75l1.25-1.25l1.25-0.75l0.75-0.5l1.75-1l1.25-0.25l1-0.75l0.5-0.75l1-1l0.5-0.75
	l0.25-0.75l-0.25-1l-1.5,0.75l-1.25,0.5h-1.25l-0.75,0.25l-1,0.75l-0.5,0.75l-0.75,0.25h-0.75h-1.5l-1.92,0.75l-1.5-0.5l-0.67-0.33
	l0.33-0.67l3-2.75l0.75-0.5l0.75-0.5l1.75-0.75l1-0.5l1.5-0.75l2-1.25l1-1.25l1.5-2l0.75-0.5l-1-1.25l1.5-1.5l2-0.75l1.75-1l3.5-1
	l1.25-1l2.25-1.5l1-0.5l1.5-0.75v-1.25l-2.5,1.25l-2.5,1l-1.5,0.25l-0.75,1.25h-1.25l-1,0.75l-1.25,0.75l-1.25,0.25l-1.25-0.25
	l-0.75,0.75l-1,0.25l-1.75-0.75l-1.5,0.5l-1,1.75l0.25,1.25l-2.75-0.25l-0.25,0.75l-1.25,0.5l-1.5,1h-1.75l-1.25,1.75l-0.25,1
	l-1,0.5l-1,0.5h-1.75l-0.5-1l0.5-0.75l0.75-0.25h0.75l0.5-0.75l0.75-0.75l1.5-0.5l0.5-0.75l0.25-0.75v-1l0.5-0.75l0.25-0.75
	l0.75-0.25l0.75-1l0.25-0.75l-2,0.25l-0.75-0.75l-0.75-0.25l-1.25-0.25l-1.5,1.25h-0.75l-1-0.5l-0.75,0.25l-0.5,0.75l-0.5,1.25
	l-1.75,0.33l-1,0.5l-0.75-0.83l-0.5,0.75l-1.5,0.5l-0.75,0.25l-1.25-0.75l0.75-0.75l1-0.75l1-0.25h0.75l1.5-1.25l1-0.75l1.25-0.25
	h0.75l0.25-0.75l1.5-0.5l2.5-1l1.5-1l1.25,0.25l3.5-2l1.25-0.5l1.25-1l1-0.5l-0.25-1.75l-1.25,0.5l-1.5,0.75h-1.5l-1.25,0.75
	l-1.25,0.25l-1.25,0.75l-1,1.5l-1,0.25h-4.5l1-1.5l1.25-1l1.75-0.5l1.75-0.75l4-0.75l1.5-1.5l-0.75-0.5l-1,0.25l-1.25,0.5l-1.5,0.75
	l-1.5,0.5l-1.25,0.5l-1.5,0.25l-1.25,0.75l-2.5,0.5l-1.75,1l-1.25,0.75l-1.75,0.75l-1.5,0.75l-2.5-0.5v-1l0.75-0.25l1-0.5l1.75-0.75
	l1-0.5l1.5-0.75l1.75-0.5l1.25-0.75l1.25-0.75l0.75-0.25l1.25-0.5l1-0.25l1.25-0.25l1-0.25l1.75-1.25l2.25-1.25l0.75-0.5l1-0.75
	l0.75-0.25l1-0.5l1.75-0.5l1-0.25h1.25l2.5-1.5l2.5-1l1-0.75l1.25-0.5l0.5-0.75l1.5-0.5l1.5-0.25l1.75,0.25l1.25-0.25l0.75-0.25
	l1.5-0.5l1.25-0.5l1.25-1l1.25-0.25l3.25-0.75l1-0.5l1-0.5l1.5-0.5l1.5-0.5l1.25-0.5l1.75-0.75l1.5-0.75l0.75-0.5l1.25-0.25l3,0.25
	l2.25-0.5l2.25-1l0.75-0.75l1-0.75l1-1.5l2.25-0.5l2-0.25l1-0.25h2.75l2-1.25l1.5-0.75h1.25l1.5-0.5l1-0.5l1.25,0.25h0.75l1.25-0.25
	l1.75-1.75l0.75-0.5l1.25,0.25h2.75l1,0.5l1,0.5h1l0.25-1.5h-1.75l0.75-1.25l1.75,0.25l1.5,0.5l1.5-0.5l1.5-1.25l3.5-0.75l1-0.25h3
	l4.5-1.5l1-0.25l3,0.5h1.25l3.25-0.5l3.25-1h1.75l1-0.25l2.75-0.75h3.5l1.5-1l2.5,0.5l4-0.75l1.25-0.5h1l1-0.25h1.75l1.5-0.25h1.5
	h1.5h1.25l0.75-0.25l2.25-0.75l2.75-0.5h1.25l0.75-0.25l2.25,0.25l1.75-0.5h0.75l1.25-0.25l1.25,0.25h0.75l0.75,0.25h0.75l0.75,0.5
	h2.5l2.25-0.25h0.75l1-0.25l1-0.25l0.75-0.25l1-0.75l1-0.25l1.75,0.25h1.25h1l1.25,0.25l1-0.25l1.5-0.25h1l4,0.5l3-0.25h3.5
	l0.75-0.25l1.5-0.25l1.25-0.5l-0.25,1.25l0.25,1l0.75-0.25l1.5,0.25l0.75-0.5l1.25-0.25v-0.75h-1.75l-0.75-0.75l1-0.5l1-0.25h0.75
	l2,0.75l2.75-0.5l1.25-0.25l3.75-0.5l3.25,0.25h1l1.5-0.25l1.5,0.5l-0.75,1l0.5,0.75l0.75-0.5h1h1.5h0.75h2l0.75,0.25l0.25,0.75
	l-1.25,0.5l-1,0.25h-0.75h-2l-1.5,0.25l-1.25,0.25l-1.5,0.25l-1,0.25l-1.5,0.25h-1h-0.75l-0.75-0.25l-0.75,0.25l-1.25-0.25
	l-1.25,0.25l-1-0.25h-1l-0.83,0.5l-1.83,0.17l-1.83-0.42l-0.75,0.25h-2.75h-3h-1.75l-1.58,0.83l-1.67-0.08l-2,0.5h-3.25l-0.75,0.25
	l-1.25,0.25h-2.25l-1.5,0.25l-2.25-0.25l-1.25,0.75h-1.25l0.5,1h2l1.25,0.25l2.25,0.25l1.75-1l0.75-0.25l2.5-0.25l1.5,0.5l1.5-0.25
	h1l0.75-0.75h2l1.25-0.25l2.25,0.25l1.5-0.25h1h0.75h1.75h1.75l0.25,1.25l-1.25,0.5l1.25,0.75l1.25,0.5l1-0.25l1,0.25l1.75,0.25h1.5
	l1-0.25h1.5l1.25,0.25h0.75l1,0.25l0.25,0.75l-1.25,0.5h-1.75l-0.5,0.75l-1,0.5L306.43,25.07z"/>
</svg>
